<svg width="20" height="20" viewBox="0 0 20 20" fill="none" xmlns="http://www.w3.org/2000/svg">
<rect width="20" height="20" rx="4" fill="#FFF5EA"/>
<g clip-path="url(#clip0_16309_4662)">
<path d="M10.5 17.921C12.6193 17.921 14.3373 16.317 14.3373 14.3384V4.0326C14.3373 3.76874 14.1579 3.5381 13.9018 3.47471C13.0164 3.25561 11.8431 3.05675 10.4595 3.0606C9.11406 3.06445 7.97075 3.25885 7.10101 3.4739C6.84383 3.53749 6.6626 3.76753 6.6626 4.0326V14.3382C6.6626 16.3168 8.38061 17.9208 10.5 17.9208V17.921Z" fill="#3F312D" stroke="#3F312D" stroke-width="0.1215" stroke-miterlimit="10"/>
<path d="M12.4553 4.49512H8.54462C8.193 4.49512 7.90796 4.78016 7.90796 5.13178V6.69285C7.90796 7.04446 8.193 7.32951 8.54462 7.32951H12.4553C12.8069 7.32951 13.092 7.04446 13.092 6.69285V5.13178C13.092 4.78016 12.8069 4.49512 12.4553 4.49512Z" fill="white" stroke="#3F312D" stroke-width="0.0809999" stroke-miterlimit="10"/>
<path d="M9.27549 8.10059H11.7245C12.0435 8.10059 12.3023 8.35938 12.3023 8.67832C12.3023 8.99726 12.0435 9.25605 11.7245 9.25605H9.27549C8.95655 9.25605 8.69775 8.99726 8.69775 8.67832C8.69775 8.35938 8.95655 8.10059 9.27549 8.10059Z" fill="white" stroke="#3F312D" stroke-width="0.0540674" stroke-miterlimit="10"/>
<path d="M10.522 8.26172H10.5097C10.482 8.26172 10.4595 8.2842 10.4595 8.31194V8.64708C10.4595 8.67481 10.482 8.6973 10.5097 8.6973H10.522C10.5498 8.6973 10.5723 8.67481 10.5723 8.64708V8.31194C10.5723 8.2842 10.5498 8.26172 10.522 8.26172Z" fill="#3F312D" stroke="#3F312D" stroke-width="0.0188325" stroke-miterlimit="10"/>
<path d="M10.6322 8.4458V8.54199C10.7217 8.57621 10.7835 8.64891 10.7835 8.73295C10.7835 8.84999 10.6636 8.94496 10.516 8.94496C10.3684 8.94496 10.2485 8.84999 10.2485 8.73295C10.2485 8.64891 10.3103 8.57621 10.3998 8.54199V8.4458C10.2465 8.48468 10.1355 8.59849 10.1355 8.73295C10.1355 8.8994 10.3058 9.03447 10.516 9.03447C10.7262 9.03447 10.8965 8.8994 10.8965 8.73295C10.8965 8.59849 10.7855 8.48468 10.6322 8.4458Z" fill="#3F312D" stroke="#3F312D" stroke-width="0.0188325" stroke-miterlimit="10"/>
<path d="M8.99842 14.3182H8.3571C8.21393 14.3182 8.0979 14.2022 8.0979 14.059C8.0979 13.9158 8.21393 13.7998 8.3571 13.7998H8.99842C9.14158 13.7998 9.25762 13.9158 9.25762 14.059C9.25762 14.2022 9.14158 14.3182 8.99842 14.3182Z" fill="white" stroke="#3F312D" stroke-width="0.0650024" stroke-miterlimit="10"/>
<path d="M10.8929 14.3182H10.2516C10.1085 14.3182 9.99243 14.2022 9.99243 14.059C9.99243 13.9158 10.1085 13.7998 10.2516 13.7998H10.8929C11.0361 13.7998 11.1521 13.9158 11.1521 14.059C11.1521 14.2022 11.0361 14.3182 10.8929 14.3182Z" fill="white" stroke="#3F312D" stroke-width="0.0650024" stroke-miterlimit="10"/>
<path d="M12.6232 14.3182H11.9819C11.8387 14.3182 11.7227 14.2022 11.7227 14.059C11.7227 13.9158 11.8387 13.7998 11.9819 13.7998H12.6232C12.7663 13.7998 12.8824 13.9158 12.8824 14.059C12.8824 14.2022 12.7663 14.3182 12.6232 14.3182Z" fill="white" stroke="#3F312D" stroke-width="0.0650024" stroke-miterlimit="10"/>
<path d="M8.99842 15.3558H8.3571C8.21393 15.3558 8.0979 15.2398 8.0979 15.0966C8.0979 14.9534 8.21393 14.8374 8.3571 14.8374H8.99842C9.14158 14.8374 9.25762 14.9534 9.25762 15.0966C9.25762 15.2398 9.14158 15.3558 8.99842 15.3558Z" fill="white" stroke="#3F312D" stroke-width="0.0650024" stroke-miterlimit="10"/>
<path d="M10.8929 14.8374H10.2514C10.1082 14.8374 9.99219 14.9534 9.99219 15.0966V15.0968C9.99219 15.24 10.1082 15.356 10.2514 15.356H10.8929C11.0361 15.356 11.1521 15.24 11.1521 15.0968V15.0966C11.1521 14.9534 11.0361 14.8374 10.8929 14.8374Z" fill="white" stroke="#3F312D" stroke-width="0.0650024" stroke-miterlimit="10"/>
<path d="M12.6232 15.3558H11.9819C11.8387 15.3558 11.7227 15.2398 11.7227 15.0966C11.7227 14.9534 11.8387 14.8374 11.9819 14.8374H12.6232C12.7663 14.8374 12.8824 14.9534 12.8824 15.0966C12.8824 15.2398 12.7663 15.3558 12.6232 15.3558Z" fill="white" stroke="#3F312D" stroke-width="0.0650024" stroke-miterlimit="10"/>
<path d="M10.5 12.7637C11.3052 12.7637 11.958 12.1109 11.958 11.3057C11.958 10.5004 11.3052 9.84766 10.5 9.84766C9.69476 9.84766 9.04199 10.5004 9.04199 11.3057C9.04199 12.1109 9.69476 12.7637 10.5 12.7637Z" fill="white" stroke="#3F312D" stroke-width="0.0615599" stroke-miterlimit="10"/>
<path d="M11.2954 11.1775L10.4939 10.5425L9.70459 11.168L11.2954 11.1775Z" fill="#3F312D" stroke="#3F312D" stroke-width="0.044145" stroke-miterlimit="10"/>
<path d="M11.2954 11.5625L10.4939 12.1975L9.70459 11.572L11.2954 11.5625Z" fill="#3F312D" stroke="#3F312D" stroke-width="0.044145" stroke-miterlimit="10"/>
</g>
<defs>
<clipPath id="clip0_16309_4662">
<rect width="7.79624" height="14.9819" fill="white" transform="translate(6.60181 3)"/>
</clipPath>
</defs>
</svg>
