<svg width="20" height="20" viewBox="0 0 20 20" fill="none" xmlns="http://www.w3.org/2000/svg">
<rect y="0.5" width="20" height="19" rx="4" fill="#FFF5EA"/>
<path d="M6.56187 11.764C6.52276 11.8813 6.4372 11.9718 6.3052 12.0353C6.1732 12.0989 6.0192 12.1111 5.8432 12.072C5.75031 12.0427 5.67454 12.0036 5.61587 11.9547C5.5572 11.9058 5.5132 11.8496 5.48387 11.786C5.45943 11.7224 5.4472 11.6589 5.4472 11.5953C5.4472 11.5318 5.45698 11.4707 5.47654 11.412L7.06787 6.91667C7.10209 6.81889 7.17298 6.726 7.28054 6.638C7.39298 6.54511 7.5592 6.49867 7.7792 6.49867C7.9992 6.49867 8.16543 6.54511 8.27787 6.638C8.39031 6.726 8.46365 6.81889 8.49787 6.91667L10.0892 11.4267C10.1479 11.5978 10.1454 11.7347 10.0819 11.8373C10.0183 11.94 9.90831 12.0133 9.75187 12.0573C9.56609 12.1111 9.40965 12.1062 9.28254 12.0427C9.16031 11.9791 9.07476 11.874 9.02587 11.7273L8.68854 10.7227H6.91387L6.56187 11.764ZM8.38787 9.83533L7.8012 8.08267L7.21454 9.83533H8.38787ZM10.9459 11.9547C10.8286 11.8618 10.7699 11.7249 10.7699 11.544V6.99733C10.7699 6.81644 10.8286 6.67956 10.9459 6.58667C11.0682 6.49378 11.2148 6.44733 11.3859 6.44733C11.5571 6.44733 11.7037 6.49378 11.8259 6.58667C11.9482 6.67956 12.0093 6.81644 12.0093 6.99733V11.544C12.0093 11.7249 11.9482 11.8618 11.8259 11.9547C11.7037 12.0524 11.5571 12.1013 11.3859 12.1013C11.2148 12.1013 11.0682 12.0524 10.9459 11.9547ZM13.1087 11.9547C12.9914 11.8618 12.9327 11.7249 12.9327 11.544V6.99733C12.9327 6.81644 12.9914 6.67956 13.1087 6.58667C13.2309 6.49378 13.3776 6.44733 13.5487 6.44733C13.7198 6.44733 13.8665 6.49378 13.9887 6.58667C14.1109 6.67956 14.172 6.81644 14.172 6.99733V11.544C14.172 11.7249 14.1109 11.8618 13.9887 11.9547C13.8665 12.0524 13.7198 12.1013 13.5487 12.1013C13.3776 12.1013 13.2309 12.0524 13.1087 11.9547Z" fill="#999999"/>
</svg>
